<svg width="400" height="267" viewBox="0 0 400 267" fill="none" xmlns="http://www.w3.org/2000/svg">
<path fill-rule="evenodd" clip-rule="evenodd" d="M400 133.333L266.667 -6.36682e-06L133.333 133.333L183.333 133.333L266.667 50L350 133.333L400 133.333Z" fill="#54C5F8"/>
<path fill-rule="evenodd" clip-rule="evenodd" d="M0 133.333L133.333 266.667L266.667 133.333L216.667 133.333L133.333 216.667L50 133.333L0 133.333Z" fill="#54C5F8"/>
<path fill-rule="evenodd" clip-rule="evenodd" d="M266.667 133.333L133.333 -6.36682e-06L0 133.333L50 133.333L133.333 50L216.667 133.333L266.667 133.333Z" fill="#01579B"/>
<path fill-rule="evenodd" clip-rule="evenodd" d="M133.333 133.333L266.667 266.667L400 133.333L350 133.333L266.667 216.667L183.333 133.333L133.333 133.333Z" fill="#01579B"/>
<rect x="175" y="91.6667" width="35.3553" height="35.3553" transform="rotate(-45 175 91.6667)" fill="#29B6F6"/>
<rect x="175" y="175" width="35.3553" height="35.3553" transform="rotate(-45 175 175)" fill="#29B6F6"/>
</svg>
